# xmcd CD database file
#
# Track frame offsets:
#	150
#	17087
#	32462
#	45739
#	63165
#	75377
#	90865
#	104327
#	119860
#	131560
#	144187
#	156707
#	175465
#	198207
#	213662
#
# Disc length: 3019 seconds
#
# Revision: 1
# Processed by: cddbd v1.4PL0 Copyright (c) Steve Scherf et al.
# Submitted via: CDex 1.40Release
#
DISCID=ca0bc90f
DTITLE=Various Artist - Countryfolk
DYEAR=1996
DGENRE=Country
TTITLE0=Katy Moffatt - Hearts Gone Wild
TTITLE1=Diana Jones - There's a Fire
TTITLE2=Josie Kuhn - I'm Gonna Tell You Now
TTITLE3=Nikki Newman - Healing
TTITLE4=Siobhan Skates - Sunset Over Cornwall
TTITLE5=Christine Albert - Who You Are
TTITLE6=Marian Bradfield - Ladies Don't Cry
TTITLE7=Josie Kuhn - Are You Sincere ?
TTITLE8=Rosemary Woods - Wild Flowers For You
TTITLE9=Diana Jones - The Rain Knows
TTITLE10=Rosemary Woods - Leave That Liar Alone
TTITLE11=Christine Albert - Take Me Dancin'
TTITLE12=Marian Bradfield - Nature's Man And Wife
TTITLE13=Siobhan Skates - Love At Its Best
TTITLE14=Katy Moffatt - Wild Girl
EXTD=YEAR: 1996 ID3G: 2
EXTT0=
EXTT1=
EXTT2=
EXTT3=
EXTT4=
EXTT5=
EXTT6=
EXTT7=
EXTT8=
EXTT9=
EXTT10=
EXTT11=
EXTT12=
EXTT13=
EXTT14=
PLAYORDER=
